<svg width="164" height="49" viewBox="0 0 164 49" fill="none" xmlns="http://www.w3.org/2000/svg">
<path d="M8.99999 9.99999C16.9725 -9.39979 14.3515 3.40465 9.99562 19.135C13.7224 14.7545 17.933 9.89007 19 9.99999L8.99999 42L164 40.5C164 40.5 157.199 43.2442 152.981 45.527C160.544 46.004 163.413 46.655 159 47.5C146.98 49.8018 148.564 47.9173 152.981 45.527C121.578 43.5465 9.23149 44.5665 0.976002 47.1655C0.731953 47.6042 0.56729 47.7355 0.499995 47.5C0.467373 47.3858 0.630561 47.2743 0.976002 47.1655C2.43097 44.5502 6.70757 31.009 9.99562 19.135C6.35603 23.4129 3.17788 27.2293 3.83989 25.5C3.73986 23.9347 5.13877 19.3957 8.99999 9.99999Z" fill="#FFB62E"/>
<path d="M23.2695 33.221C22.8102 33.221 22.5805 32.922 22.5805 32.324V17.166C22.5805 16.5507 22.7929 16.243 23.2175 16.243C23.5122 16.243 23.7722 16.4077 23.9975 16.737L28.8465 23.965L33.7215 16.737C33.9469 16.4077 34.2025 16.243 34.4885 16.243C34.9219 16.243 35.1385 16.5507 35.1385 17.166V32.324C35.1385 32.922 34.9132 33.221 34.4625 33.221C34.0032 33.221 33.7735 32.9133 33.7735 32.298V18.856L29.4315 25.395C29.3275 25.5597 29.2322 25.668 29.1455 25.72C29.0675 25.7633 28.9765 25.785 28.8725 25.785C28.7772 25.785 28.6819 25.7633 28.5865 25.72C28.4999 25.668 28.4045 25.5597 28.3005 25.395L23.9455 18.856V32.298C23.9455 32.9133 23.7202 33.221 23.2695 33.221ZM50.2819 33.221C49.8313 33.221 49.6059 32.9047 49.6059 32.272V22.873L40.6749 33.039H39.2189V21.716C39.2189 21.1007 39.4443 20.793 39.8949 20.793C40.3543 20.793 40.5839 21.105 40.5839 21.729V31.232L49.5799 20.975H50.9709V32.298C50.9709 32.9133 50.7413 33.221 50.2819 33.221ZM63.8704 22.34H57.5134C56.9674 22.34 56.5904 22.4527 56.3824 22.678C56.183 22.9033 56.0834 23.302 56.0834 23.874V32.324C56.0834 32.922 55.858 33.221 55.4074 33.221C54.948 33.221 54.7184 32.922 54.7184 32.324V24.277C54.7184 23.0377 54.9047 22.1797 55.2774 21.703C55.6587 21.2177 56.3434 20.975 57.3314 20.975H63.8704C64.477 20.975 64.7804 21.2003 64.7804 21.651C64.7804 22.1103 64.477 22.34 63.8704 22.34ZM68.0078 33.221C67.5572 33.221 67.3318 32.922 67.3318 32.324V16.425H79.0838V32.324C79.0838 32.922 78.8542 33.221 78.3948 33.221C77.9442 33.221 77.7188 32.922 77.7188 32.324V17.79H68.6968V32.324C68.6968 32.922 68.4672 33.221 68.0078 33.221ZM88.5267 33.039C87.192 33.039 86.1044 32.909 85.2637 32.649C84.423 32.3803 83.799 31.9123 83.3917 31.245C82.993 30.5777 82.7937 29.6373 82.7937 28.424V25.577C82.7937 24.3723 82.993 23.4363 83.3917 22.769C83.799 22.1017 84.423 21.638 85.2637 21.378C86.1044 21.1093 87.192 20.975 88.5267 20.975H89.2807C90.6067 20.975 91.69 21.1093 92.5307 21.378C93.38 21.638 94.004 22.1017 94.4027 22.769C94.8014 23.4363 95.0007 24.3723 95.0007 25.577V28.424C95.0007 29.6373 94.8014 30.5777 94.4027 31.245C94.004 31.9123 93.38 32.3803 92.5307 32.649C91.69 32.909 90.6067 33.039 89.2807 33.039H88.5267ZM88.5267 31.674H89.2807C90.416 31.674 91.3 31.596 91.9327 31.44C92.5654 31.2753 93.0074 30.959 93.2587 30.491C93.51 30.0143 93.6357 29.321 93.6357 28.411V25.603C93.6357 24.641 93.5014 23.9303 93.2327 23.471C92.964 23.003 92.5134 22.6997 91.8807 22.561C91.248 22.4137 90.3814 22.34 89.2807 22.34H88.5267C87.4087 22.34 86.529 22.4137 85.8877 22.561C85.255 22.6997 84.8087 23.003 84.5487 23.471C84.2887 23.939 84.1587 24.6497 84.1587 25.603V28.411C84.1587 29.3297 84.2844 30.023 84.5357 30.491C84.787 30.959 85.229 31.2753 85.8617 31.44C86.503 31.596 87.3914 31.674 88.5267 31.674ZM107.568 22.34H101.211C100.665 22.34 100.288 22.4527 100.08 22.678C99.8803 22.9033 99.7806 23.302 99.7806 23.874V32.324C99.7806 32.922 99.5553 33.221 99.1046 33.221C98.6453 33.221 98.4156 32.922 98.4156 32.324V24.277C98.4156 23.0377 98.602 22.1797 98.9746 21.703C99.356 21.2177 100.041 20.975 101.029 20.975H107.568C108.174 20.975 108.478 21.2003 108.478 21.651C108.478 22.1103 108.174 22.34 107.568 22.34ZM111.445 37.771C111.003 37.771 110.782 37.4633 110.782 36.848V21.69C110.782 21.092 111.012 20.793 111.471 20.793C111.705 20.793 111.874 20.871 111.978 21.027C112.091 21.183 112.147 21.4343 112.147 21.781V23.302L111.913 22.99C112.407 22.3053 113.04 21.7983 113.811 21.469C114.582 21.1397 115.488 20.975 116.528 20.975H117.282C118.608 20.975 119.691 21.1093 120.532 21.378C121.373 21.638 121.992 22.1017 122.391 22.769C122.79 23.4363 122.989 24.3723 122.989 25.577V28.424C122.989 29.6373 122.79 30.5777 122.391 31.245C121.992 31.9123 121.373 32.3803 120.532 32.649C119.691 32.909 118.612 33.039 117.295 33.039H112.147V36.848C112.147 37.4633 111.913 37.771 111.445 37.771ZM112.147 31.674H117.295C118.43 31.674 119.31 31.596 119.934 31.44C120.558 31.2753 120.996 30.959 121.247 30.491C121.498 30.0143 121.624 29.321 121.624 28.411V25.603C121.624 24.641 121.49 23.9303 121.221 23.471C120.952 23.003 120.502 22.6997 119.869 22.561C119.236 22.4137 118.374 22.34 117.282 22.34H116.528C115.089 22.34 113.997 22.7343 113.252 23.523C112.515 24.3117 112.147 25.46 112.147 26.968V31.674ZM128.879 38.369C128.194 38.369 127.665 38.239 127.293 37.979C126.929 37.7277 126.677 37.3983 126.539 36.991C126.409 36.5837 126.344 36.1503 126.344 35.691C126.344 35.2837 126.4 34.989 126.513 34.807C126.625 34.625 126.799 34.534 127.033 34.534C127.31 34.534 127.492 34.6337 127.579 34.833C127.665 35.041 127.709 35.2533 127.709 35.47C127.726 35.9293 127.813 36.2977 127.969 36.575C128.133 36.861 128.523 37.004 129.139 37.004H136.003C136.488 37.004 136.804 36.9173 136.952 36.744C137.108 36.5707 137.186 36.224 137.186 35.704V31.349C136.215 32.4757 134.763 33.039 132.831 33.039H132.077C130.751 33.039 129.663 32.909 128.814 32.649C127.973 32.3803 127.349 31.9123 126.942 31.245C126.543 30.5777 126.344 29.6373 126.344 28.424V21.729C126.344 21.105 126.573 20.793 127.033 20.793C127.483 20.793 127.709 21.105 127.709 21.729V28.411C127.709 29.3297 127.834 30.023 128.086 30.491C128.346 30.959 128.792 31.2753 129.425 31.44C130.057 31.596 130.941 31.674 132.077 31.674H132.831C134.243 31.674 135.322 31.2797 136.068 30.491C136.813 29.7023 137.186 28.554 137.186 27.046V21.729C137.186 21.105 137.415 20.793 137.875 20.793C138.325 20.793 138.551 21.105 138.551 21.729V35.288C138.551 36.432 138.382 37.2293 138.044 37.68C137.714 38.1393 137.095 38.369 136.185 38.369H128.879ZM144.552 33.039C143.564 33.039 142.884 32.792 142.511 32.298C142.138 31.804 141.952 30.9287 141.952 29.672C141.952 29.0653 142.177 28.762 142.628 28.762C143.087 28.762 143.317 29.0653 143.317 29.672V30.14C143.317 30.712 143.417 31.1107 143.616 31.336C143.824 31.5613 144.197 31.674 144.734 31.674H149.492C151.563 31.674 152.599 31.1323 152.599 30.049C152.599 29.1737 152.356 28.528 151.871 28.112C151.386 27.696 150.627 27.488 149.596 27.488H147.36C146.736 27.488 146.424 27.28 146.424 26.864C146.424 26.37 146.736 26.123 147.36 26.123H149.596C150.307 26.123 150.883 26.0623 151.325 25.941C151.767 25.8197 152.092 25.603 152.3 25.291C152.517 24.9703 152.625 24.524 152.625 23.952C152.625 22.8773 151.581 22.34 149.492 22.34H144.734C144.197 22.34 143.824 22.4527 143.616 22.678C143.417 22.8947 143.317 23.289 143.317 23.861V24.329C143.317 24.9443 143.087 25.252 142.628 25.252C142.177 25.252 141.952 24.9443 141.952 24.329C141.952 23.0723 142.138 22.2013 142.511 21.716C142.884 21.222 143.564 20.975 144.552 20.975H149.674C150.939 20.975 151.971 21.2437 152.768 21.781C153.565 22.3183 153.964 23.1503 153.964 24.277C153.964 25.0137 153.825 25.5683 153.548 25.941C153.271 26.3137 152.885 26.6127 152.391 26.838C153.44 27.488 153.964 28.4153 153.964 29.62C153.964 30.816 153.565 31.687 152.768 32.233C151.971 32.7703 150.939 33.039 149.674 33.039H144.552Z" fill="black"/>
</svg>
