<svg width="548" height="597" viewBox="0 0 548 597" fill="none" xmlns="http://www.w3.org/2000/svg">
<path d="M140.5 295L49.5 171.016L168.303 193.5L127.135 34.302L261.152 145.601L279.547 1L346.118 171.016L546.707 107.917L407 219.216L527.5 274L372.396 327.009L445 595.5L301.445 383.097L127.135 512.8L168.303 360.311H1L140.5 295Z" fill="#FF2E2E" stroke="#161616" stroke-width="3"/>
<g filter="url(#filter0_d)">
<path d="M181.748 282C181.406 282 181.108 281.872 180.852 281.616C180.596 281.36 180.468 281.061 180.468 280.72C180.468 280.379 180.489 280.144 180.532 280.016L196.404 238.608C196.745 237.669 197.428 237.2 198.452 237.2H202.804C203.828 237.2 204.51 237.669 204.852 238.608L220.66 280.016L220.788 280.72C220.788 281.061 220.66 281.36 220.404 281.616C220.148 281.872 219.849 282 219.508 282H216.244C215.774 282 215.412 281.893 215.156 281.68C214.9 281.424 214.729 281.168 214.644 280.912L211.124 271.824H190.132L186.612 280.912C186.526 281.168 186.334 281.424 186.036 281.68C185.78 281.893 185.438 282 185.012 282H181.748ZM209.268 266.32L200.628 243.6L191.988 266.32H209.268ZM254.575 280.144C254.788 280.4 254.895 280.677 254.895 280.976C254.895 281.275 254.767 281.531 254.511 281.744C254.297 281.915 253.999 282 253.615 282H249.711C249.028 282 248.473 281.68 248.047 281.04L238.767 267.664H232.751V280.528C232.751 280.955 232.601 281.317 232.303 281.616C232.047 281.872 231.705 282 231.279 282H228.271C227.844 282 227.481 281.872 227.183 281.616C226.927 281.317 226.799 280.955 226.799 280.528V250.192C226.799 249.765 226.927 249.424 227.183 249.168C227.481 248.869 227.844 248.72 228.271 248.72H231.279C231.705 248.72 232.047 248.869 232.303 249.168C232.601 249.424 232.751 249.765 232.751 250.192V262.48H238.639L247.215 249.68C247.727 249.04 248.303 248.72 248.943 248.72H252.271C252.655 248.72 252.975 248.827 253.231 249.04C253.487 249.211 253.615 249.445 253.615 249.744C253.615 249.957 253.508 250.213 253.295 250.512L243.759 264.656L254.575 280.144ZM289.463 290.064C289.036 290.064 288.674 289.936 288.375 289.68C288.119 289.424 287.991 289.061 287.991 288.592V282H262.583C262.156 282 261.794 281.872 261.495 281.616C261.239 281.317 261.111 280.955 261.111 280.528V250.192C261.111 249.765 261.239 249.424 261.495 249.168C261.794 248.869 262.156 248.72 262.583 248.72H265.655C266.082 248.72 266.423 248.869 266.679 249.168C266.978 249.424 267.127 249.765 267.127 250.192V276.88H283.511V250.192C283.511 249.765 283.639 249.424 283.895 249.168C284.151 248.869 284.492 248.72 284.919 248.72H287.991C288.418 248.72 288.759 248.869 289.015 249.168C289.314 249.424 289.463 249.765 289.463 250.192L289.399 276.88H292.471C292.898 276.88 293.239 277.029 293.495 277.328C293.794 277.584 293.943 277.925 293.943 278.352V288.592C293.943 289.019 293.794 289.36 293.495 289.616C293.239 289.915 292.898 290.064 292.471 290.064H289.463ZM328.962 248.72C329.303 248.72 329.602 248.848 329.858 249.104C330.156 249.36 330.306 249.659 330.306 250V280.528C330.306 280.955 330.156 281.317 329.858 281.616C329.602 281.872 329.26 282 328.833 282H325.826C325.399 282 325.036 281.872 324.738 281.616C324.482 281.317 324.354 280.955 324.354 280.528V257.296L306.626 281.04C306.156 281.68 305.602 282 304.962 282H302.082C301.698 282 301.356 281.872 301.058 281.616C300.802 281.317 300.674 280.997 300.674 280.656V250.192C300.674 249.765 300.802 249.424 301.058 249.168C301.356 248.869 301.719 248.72 302.146 248.72H305.218C305.644 248.72 305.986 248.869 306.242 249.168C306.54 249.424 306.69 249.765 306.69 250.192V273.296L324.354 249.68C324.823 249.04 325.378 248.72 326.018 248.72H328.962ZM363.482 248.72C363.908 248.72 364.25 248.869 364.506 249.168C364.804 249.424 364.954 249.765 364.954 250.192V280.528C364.954 280.955 364.804 281.317 364.506 281.616C364.25 281.872 363.908 282 363.482 282H360.41C359.983 282 359.62 281.872 359.322 281.616C359.066 281.317 358.938 280.955 358.938 280.528V270.096H352.09L344.858 281.04C344.687 281.296 344.452 281.531 344.154 281.744C343.855 281.915 343.535 282 343.194 282H340.122C339.738 282 339.418 281.872 339.161 281.616C338.906 281.36 338.778 281.061 338.778 280.72C338.778 280.293 338.927 279.909 339.226 279.568L346.394 269.008C344.175 268.24 342.511 267.024 341.402 265.36C340.292 263.653 339.738 261.605 339.738 259.216C339.738 255.632 340.783 252.987 342.874 251.28C345.007 249.573 348.207 248.72 352.474 248.72H363.482ZM359.002 253.52H352.282C349.85 253.52 348.079 253.947 346.97 254.8C345.86 255.653 345.306 257.125 345.306 259.216C345.306 261.051 345.839 262.523 346.906 263.632C348.015 264.741 349.636 265.296 351.77 265.296H359.002V253.52Z" fill="black"/>
</g>
<defs>
<filter id="filter0_d" x="170.468" y="233.2" width="208.486" height="76.864" filterUnits="userSpaceOnUse" color-interpolation-filters="sRGB">
<feFlood flood-opacity="0" result="BackgroundImageFix"/>
<feColorMatrix in="SourceAlpha" type="matrix" values="0 0 0 0 0 0 0 0 0 0 0 0 0 0 0 0 0 0 127 0"/>
<feOffset dx="2" dy="8"/>
<feGaussianBlur stdDeviation="6"/>
<feColorMatrix type="matrix" values="0 0 0 0 0 0 0 0 0 0 0 0 0 0 0 0 0 0 0.34 0"/>
<feBlend mode="normal" in2="BackgroundImageFix" result="effect1_dropShadow"/>
<feBlend mode="normal" in="SourceGraphic" in2="effect1_dropShadow" result="shape"/>
</filter>
</defs>
</svg>
