<svg width="97" height="99" viewBox="0 0 97 99" fill="none" xmlns="http://www.w3.org/2000/svg">
<path d="M5.99084 20.8345C10.672 -18.507 9.13303 7.4596 6.57543 39.3597C8.76365 30.4764 11.2359 20.6116 11.8624 20.8345L5.99084 85.7285L97 82.6866C97 82.6866 93.0068 88.2517 90.5302 92.881C94.9711 93.8483 96.6551 95.1686 94.0642 96.8821C87.0064 101.55 87.9369 97.7285 90.5302 92.881C72.0917 88.8648 6.12677 90.9333 1.27951 96.2039C1.13621 97.0935 1.03953 97.3598 1.00002 96.8821C0.980863 96.6506 1.07668 96.4245 1.27951 96.2039C2.1338 90.9001 4.64483 63.4395 6.57543 39.3597C4.43842 48.0351 2.57235 55.7745 2.96106 52.2676C2.90232 49.0933 3.7237 39.8883 5.99084 20.8345Z" fill="#FFB62E"/>
<path d="M19.4731 72.3057C18.3778 72.3057 17.8301 71.5927 17.8301 70.1667V34.0207C17.8301 32.5534 18.3365 31.8197 19.3491 31.8197C20.0518 31.8197 20.6718 32.2124 21.2091 32.9977L32.7721 50.2337L44.3972 32.9977C44.9345 32.2124 45.5442 31.8197 46.2262 31.8197C47.2595 31.8197 47.7762 32.5534 47.7762 34.0207V70.1667C47.7762 71.5927 47.2388 72.3057 46.1641 72.3057C45.0688 72.3057 44.5211 71.572 44.5211 70.1047V38.0507L34.1671 53.6437C33.9191 54.0364 33.6918 54.2947 33.4851 54.4187C33.2991 54.522 33.0821 54.5737 32.8342 54.5737C32.6068 54.5737 32.3795 54.522 32.1521 54.4187C31.9455 54.2947 31.7182 54.0364 31.4701 53.6437L21.0851 38.0507V70.1047C21.0851 71.572 20.5478 72.3057 19.4731 72.3057ZM59.6763 72.3057C58.6016 72.3057 58.0643 71.5927 58.0643 70.1667V32.2537H86.0883V70.1667C86.0883 71.5927 85.5406 72.3057 84.4453 72.3057C83.3706 72.3057 82.8333 71.5927 82.8333 70.1667V35.5087H61.3193V70.1667C61.3193 71.5927 60.7716 72.3057 59.6763 72.3057Z" fill="black"/>
</svg>
