<svg width="97" height="99" viewBox="0 0 97 99" fill="none" xmlns="http://www.w3.org/2000/svg">
<path fill-rule="evenodd" clip-rule="evenodd" d="M6.5754 39.3598C9.13299 7.45966 10.6719 -18.507 5.99081 20.8346C3.72367 39.8884 2.90229 49.0934 2.96102 52.2676C2.60095 55.5162 4.17576 49.1141 6.10845 41.2572C6.2621 40.6325 6.41802 39.9987 6.5754 39.3598ZM90.5302 92.8811C93.0068 88.2517 97 82.6866 97 82.6866L5.99081 85.7285L11.8624 20.8346C11.2359 20.6117 8.76362 30.4765 6.5754 39.3598C4.6448 63.4395 2.13377 90.9002 1.27948 96.204C1.07665 96.4245 0.980832 96.6507 0.999986 96.8822C1.0395 97.3599 1.13618 97.0936 1.27948 96.204C6.12674 90.9334 72.0917 88.8649 90.5302 92.8811ZM94.0642 96.8822C87.0063 101.55 87.9369 97.7286 90.5302 92.8811C94.9711 93.8484 96.655 95.1687 94.0642 96.8822ZM17.8302 70.1667C17.8302 71.5927 18.3778 72.3057 19.4732 72.3057C20.5478 72.3057 21.0852 71.572 21.0852 70.1047V38.0507L31.4702 53.6437C31.7182 54.0364 31.9455 54.2947 32.1522 54.4187C32.3795 54.522 32.6068 54.5737 32.8342 54.5737C33.0822 54.5737 33.2992 54.522 33.4852 54.4187C33.6918 54.2947 33.9192 54.0364 34.1672 53.6437L44.5212 38.0507V70.1047C44.5212 71.572 45.0688 72.3057 46.1642 72.3057C47.2388 72.3057 47.7762 71.5927 47.7762 70.1667V34.0207C47.7762 32.5534 47.2595 31.8197 46.2262 31.8197C45.5442 31.8197 44.9345 32.2124 44.3972 32.9977L32.7722 50.2337L21.2092 32.9977C20.6718 32.2124 20.0518 31.8197 19.3492 31.8197C18.3365 31.8197 17.8302 32.5534 17.8302 34.0207V70.1667ZM58.0643 70.1667C58.0643 71.5927 58.6016 72.3057 59.6763 72.3057C60.7716 72.3057 61.3193 71.5927 61.3193 70.1667V35.5087H82.8333V70.1667C82.8333 71.5927 83.3706 72.3057 84.4453 72.3057C85.5406 72.3057 86.0883 71.5927 86.0883 70.1667V32.2537H58.0643V70.1667Z" fill="black"/>
</svg>
